<svg width="8" height="3" viewBox="0 0 8 3" fill="none" xmlns="http://www.w3.org/2000/svg">
<path d="M1.43417 2.03613C1.22505 2.03613 1.03971 1.96009 0.878121 1.80801C0.716535 1.65593 0.635742 1.46583 0.635742 1.23771C0.635742 1.00959 0.716535 0.819488 0.878121 0.667408C1.03971 0.515327 1.22981 0.439287 1.44842 0.439287C1.66704 0.439287 1.85239 0.515327 2.00447 0.667408C2.15655 0.819488 2.23259 1.00959 2.23259 1.23771C2.23259 1.46583 2.15655 1.65593 2.00447 1.80801C1.85239 1.96009 1.66229 2.03613 1.43417 2.03613ZM4.11459 2.03613C3.88646 2.03613 3.69636 1.96009 3.54428 1.80801C3.3922 1.65593 3.31616 1.46583 3.31616 1.23771C3.31616 1.00959 3.3922 0.819488 3.54428 0.667408C3.69636 0.515327 3.88646 0.439287 4.11459 0.439287C4.34271 0.439287 4.53281 0.515327 4.68489 0.667408C4.83697 0.819488 4.91301 1.00959 4.91301 1.23771C4.91301 1.46583 4.83697 1.65593 4.68489 1.80801C4.53281 1.96009 4.34271 2.03613 4.11459 2.03613ZM6.79501 2.03613C6.56688 2.03613 6.37678 1.96009 6.2247 1.80801C6.07262 1.65593 5.99658 1.46583 5.99658 1.23771C5.99658 1.00959 6.07262 0.819488 6.2247 0.667408C6.37678 0.515327 6.56213 0.439287 6.78075 0.439287C6.99936 0.439287 7.18947 0.515327 7.35105 0.667408C7.51264 0.819488 7.59343 1.00959 7.59343 1.23771C7.59343 1.46583 7.51264 1.65593 7.35105 1.80801C7.18947 1.96009 7.00412 2.03613 6.79501 2.03613Z" fill="#212529"/>
</svg>
